<svg xmlns="http://www.w3.org/2000/svg" width="80.931" height="72.821" viewBox="0 0 80.931 72.821">
  <g id="data-storage-link-svgrepo-com_1_" data-name="data-storage-link-svgrepo-com (1)" transform="translate(0 -25.653)">
    <g id="Group_359" data-name="Group 359" transform="translate(16.22 77.016)">
      <g id="Group_358" data-name="Group 358" transform="translate(0 0)">
        <path id="Path_1172" data-name="Path 1172" d="M106.584,350.6h-2.7a1.267,1.267,0,1,0,0,2.534h2.7a1.267,1.267,0,0,0,0-2.534Z" transform="translate(-102.613 -350.597)" fill="#2e5b6c"/>
      </g>
    </g>
    <g id="Group_361" data-name="Group 361" transform="translate(5.407 77.016)">
      <g id="Group_360" data-name="Group 360" transform="translate(0 0)">
        <path id="Path_1173" data-name="Path 1173" d="M40.878,350.6H35.471a1.267,1.267,0,1,0,0,2.534h5.407a1.267,1.267,0,1,0,0-2.534Z" transform="translate(-34.204 -350.597)" fill="#2e5b6c"/>
      </g>
    </g>
    <g id="Group_363" data-name="Group 363" transform="translate(0 25.653)">
      <g id="Group_362" data-name="Group 362" transform="translate(0 0)">
        <path id="Path_1174" data-name="Path 1174" d="M76.961,71.61h-13.6V64.767A3.975,3.975,0,0,0,59.389,60.8H41.733V56.573h13.6A3.975,3.975,0,0,0,59.3,52.6V33.679a3.975,3.975,0,0,0-3.971-3.971H39.792l-1.525-2.287a3.963,3.963,0,0,0-3.3-1.768H25.6a3.975,3.975,0,0,0-3.971,3.971V52.6A3.975,3.975,0,0,0,25.6,56.573H39.2V60.8H21.542a3.975,3.975,0,0,0-3.971,3.971v5.952l-.931-1.4a3.963,3.963,0,0,0-3.3-1.768H3.971A3.975,3.975,0,0,0,0,71.525V94.5a3.975,3.975,0,0,0,3.971,3.971H33.707A3.975,3.975,0,0,0,37.678,94.5V75.58a3.975,3.975,0,0,0-3.971-3.971h-13.6V64.767a1.438,1.438,0,0,1,1.436-1.436H59.389a1.438,1.438,0,0,1,1.436,1.436v5.952l-.931-1.4a3.963,3.963,0,0,0-3.3-1.768H47.224a3.975,3.975,0,0,0-3.971,3.971V94.5a3.975,3.975,0,0,0,3.971,3.971H76.961A3.975,3.975,0,0,0,80.931,94.5V75.58A3.975,3.975,0,0,0,76.961,71.61ZM33.707,74.144a1.438,1.438,0,0,1,1.436,1.436V94.5a1.438,1.438,0,0,1-1.436,1.436H3.971A1.438,1.438,0,0,1,2.534,94.5V71.525a1.438,1.438,0,0,1,1.436-1.436h9.367a1.434,1.434,0,0,1,1.195.64l1.9,2.851a1.267,1.267,0,0,0,1.054.564ZM25.6,54.038A1.438,1.438,0,0,1,24.161,52.6V29.624A1.438,1.438,0,0,1,25.6,28.187h9.367a1.434,1.434,0,0,1,1.195.64l1.9,2.851a1.267,1.267,0,0,0,1.054.564h16.22a1.438,1.438,0,0,1,1.436,1.436V52.6a1.438,1.438,0,0,1-1.436,1.436ZM78.4,94.5a1.438,1.438,0,0,1-1.436,1.436H47.224A1.438,1.438,0,0,1,45.788,94.5V71.525a1.438,1.438,0,0,1,1.436-1.436h9.367a1.434,1.434,0,0,1,1.195.64l1.9,2.851a1.267,1.267,0,0,0,1.054.564h16.22A1.438,1.438,0,0,1,78.4,75.58V94.5Z" transform="translate(0 -25.653)" fill="#2e5b6c"/>
      </g>
    </g>
    <g id="Group_365" data-name="Group 365" transform="translate(59.474 77.016)">
      <g id="Group_364" data-name="Group 364" transform="translate(0 0)">
        <path id="Path_1175" data-name="Path 1175" d="M380.222,350.6h-2.7a1.267,1.267,0,1,0,0,2.534h2.7a1.267,1.267,0,0,0,0-2.534Z" transform="translate(-376.251 -350.597)" fill="#2e5b6c"/>
      </g>
    </g>
    <g id="Group_367" data-name="Group 367" transform="translate(48.66 77.016)">
      <g id="Group_366" data-name="Group 366" transform="translate(0 0)">
        <path id="Path_1176" data-name="Path 1176" d="M314.515,350.6h-5.407a1.267,1.267,0,1,0,0,2.534h5.407a1.267,1.267,0,1,0,0-2.534Z" transform="translate(-307.841 -350.597)" fill="#2e5b6c"/>
      </g>
    </g>
    <g id="Group_369" data-name="Group 369" transform="translate(37.847 35.115)">
      <g id="Group_368" data-name="Group 368" transform="translate(0 0)">
        <path id="Path_1177" data-name="Path 1177" d="M243.4,85.511h-2.7a1.267,1.267,0,1,0,0,2.534h2.7a1.267,1.267,0,0,0,0-2.534Z" transform="translate(-239.432 -85.511)" fill="#2e5b6c"/>
      </g>
    </g>
    <g id="Group_371" data-name="Group 371" transform="translate(27.033 35.115)">
      <g id="Group_370" data-name="Group 370" transform="translate(0 0)">
        <path id="Path_1178" data-name="Path 1178" d="M177.7,85.511H172.29a1.267,1.267,0,1,0,0,2.534H177.7a1.267,1.267,0,1,0,0-2.534Z" transform="translate(-171.023 -85.511)" fill="#2e5b6c"/>
      </g>
    </g>
  </g>
</svg>
