<svg xmlns="http://www.w3.org/2000/svg" width="15.842" height="15.842" viewBox="0 0 15.842 15.842">
  <g id="phone-call" transform="translate(202.667 202.666)">
    <g id="phone-call-2" data-name="phone-call" transform="translate(-202.667 -202.667)">
      <g id="Group_311" data-name="Group 311" transform="translate(0 0)">
        <path id="Path_1144" data-name="Path 1144" d="M14.591,10.431a9.057,9.057,0,0,1-2.842-.452,1.218,1.218,0,0,0-1.236.262L8.715,11.6a10.046,10.046,0,0,1-4.471-4.47L5.565,5.373A1.262,1.262,0,0,0,5.875,4.1,9.053,9.053,0,0,1,5.42,1.251,1.252,1.252,0,0,0,4.169,0H1.251A1.252,1.252,0,0,0,0,1.251,14.608,14.608,0,0,0,14.591,15.842a1.252,1.252,0,0,0,1.251-1.251v-2.91A1.252,1.252,0,0,0,14.591,10.431Z" transform="translate(0 0)" fill="#fff"/>
      </g>
    </g>
  </g>
</svg>
